<svg width="249" height="249" viewBox="0 0 249 249" fill="none" xmlns="http://www.w3.org/2000/svg">
<path d="M172.042 40.3542C171.415 42.8277 171.61 45.2249 171.356 47.5714C169.933 60.8538 170.356 74.187 170.424 87.5032C170.424 87.8082 170.593 88.2233 170.195 88.3334C169.594 88.4943 169.39 87.9437 169.162 87.5456C167.036 83.9031 165.562 79.9726 164.308 75.9659C161.081 65.6229 159.717 54.9411 158.81 44.2C158.15 36.322 157.514 28.4271 157.912 20.5153C158.107 16.6017 158.006 12.6543 158.819 8.7831C159.081 7.54635 159.175 6.02159 160.581 5.62346C161.902 5.25074 162.571 6.62302 163.334 7.4447C167.595 12.0359 171.728 16.7288 175.515 21.7266C180.377 28.1476 184.282 35.1361 187.688 42.4041C189.755 46.8259 192.042 51.1376 193.821 55.7034C196.802 63.3357 199.039 71.1798 200.826 79.1679C202.995 88.8332 204.494 98.5747 204.062 108.511C203.782 115.085 203.291 121.717 200.936 127.918C196.929 138.481 190.17 146.317 178.785 149.392C174.151 150.637 169.501 151.552 164.698 151.636C163.918 151.653 163.232 151.823 162.707 152.433C158.124 157.736 152.627 162.174 148.366 167.774C146.163 170.679 143.664 173.373 142.275 176.863C141.038 179.963 140.352 183.174 140.217 186.46C140.013 191.45 140.412 196.422 140.657 201.403C141.259 213.516 137.972 224.224 128.578 232.432C123.444 236.913 117.438 239.548 110.687 240.894C96.3374 243.758 82.8941 240.767 69.798 235.185C67.3838 234.152 65.0035 232.923 62.835 231.356C61.81 230.619 61.0391 229.721 60.6071 228.527C60.1327 227.205 60.4631 226.663 61.8778 226.477C63.0721 226.324 64.1988 226.663 65.3 227.044C70.0606 228.705 74.8298 230.289 79.8361 231.06C91.5683 232.881 102.572 231.178 111.958 223.546C120.378 216.701 125.333 207.663 126.968 196.837C128.052 189.696 128.349 182.479 129.205 175.321C130.365 165.563 132.983 156.38 139.446 148.672C141.741 145.936 144.41 143.581 147.129 141.293C148.323 140.294 148.484 139.354 147.925 137.973C145.316 131.535 143.3 124.936 143.554 117.897C143.851 109.587 146.629 102.234 152.542 96.2283C153.736 95.0169 154.905 93.7717 156.227 92.7128C161.081 88.7993 167.476 89.5447 171.508 94.3816C176.26 100.083 178.497 106.791 179.606 113.992C180.428 119.337 180.496 124.665 179.335 129.976C179.242 130.391 178.869 130.984 179.479 131.247C179.92 131.433 180.216 130.925 180.504 130.637C184.189 126.961 186.476 122.42 188.323 117.643C190.746 111.366 191.347 104.767 191.576 98.1088C191.864 89.9937 191.152 81.9717 189.001 74.1361C185.655 61.938 180.597 50.5531 172.55 40.6591C172.491 40.5829 172.372 40.549 172.025 40.3372L172.042 40.3542ZM157.277 123.437C157.014 125.368 157.811 127.172 158.946 128.901C159.683 130.027 160.403 130.095 161.369 129.155C164.105 126.495 166.307 123.488 167.476 119.811C168.103 117.829 168.654 115.838 168.162 113.729C167.535 111.027 166.129 110.332 163.842 111.942C159.971 114.669 157.108 118.1 157.277 123.428V123.437Z" fill="white"/>
<path d="M248.983 123.335C249 128.74 248.373 133.212 247.975 137.702C247.263 145.775 245.544 153.627 243.138 161.353C238.809 175.253 232.1 187.858 222.952 199.184C218.682 204.47 214.345 209.713 209.381 214.347C203.731 219.624 197.149 223.648 190.508 227.536C177.048 235.431 162.715 241.072 147.468 244.461C139.014 246.341 130.441 247.281 121.852 248.112C121.132 248.179 120.378 248.027 119.649 247.908C119.031 247.798 118.302 247.68 118.209 246.892C118.116 246.121 118.734 245.791 119.336 245.536C120.657 244.986 121.953 244.342 123.309 243.919C137.125 239.556 150.204 233.533 162.741 226.308C173.66 220.014 184.003 212.856 193.329 204.368C201.614 196.82 209.051 188.46 215.701 179.396C219.885 173.686 223.807 167.858 226.933 161.497C232.304 150.569 235.675 139.04 236.98 126.978C238.106 116.525 237.92 106.046 234.87 95.881C231.016 83.0476 225.866 70.8071 217.183 60.3455C216.268 59.2443 215.455 58.0584 214.574 56.9318C214.354 56.6522 214.125 56.2117 213.719 56.3473C213.227 56.5167 213.549 56.9826 213.549 57.3214C213.642 63.4205 215.328 69.2739 216.311 75.2289C218.005 85.4279 219.97 95.576 220.453 105.961C220.885 115.288 220.648 124.547 218.725 133.67C217.242 140.709 214.947 147.537 210.525 153.365C207.806 156.948 204.807 160.336 201.876 163.758C201.3 164.428 200.487 165.656 199.674 165.097C198.962 164.614 200.038 163.606 200.453 162.945C206.722 153.043 208.772 141.819 210.711 130.544C211.863 123.852 211.838 117.109 211.584 110.383C211.355 104.547 210.118 98.8204 208.932 93.094C206.256 80.159 203.316 67.2663 201.885 54.1109C201.105 46.9446 200.402 39.7697 200.233 32.5525C200.207 31.4852 200.275 30.4263 200.589 29.4013C201.215 27.3259 202.723 26.7838 204.494 28.029C207.103 29.8672 209.483 32.0103 211.702 34.2721C217.844 40.5236 223.494 47.2156 228.348 54.5345C238.581 69.96 244.654 86.9611 247.492 105.207C248.475 111.527 248.653 117.871 249 123.344H248.983V123.335Z" fill="white"/>
<path d="M46.6724 183.487C41.5645 183.733 36.9055 183.207 32.3227 181.878C27.6383 180.522 23.5299 178.108 19.9976 174.864C9.90871 165.596 4.01296 154.025 1.59028 140.582C-1.00182 126.215 -0.264847 111.976 2.64067 97.7445C6.24081 80.0573 13.6783 64.115 24.2161 49.5874C30.3236 41.1674 37.6848 33.9078 45.766 27.3852C50.5606 23.514 55.4314 19.7444 60.6833 16.534C64.563 14.1621 68.6629 12.1206 72.8306 10.2655C73.3897 10.0198 74.1351 9.64712 74.5925 10.257C75.0076 10.7992 74.4146 11.3413 74.1012 11.8072C69.9674 17.9147 65.7404 23.9545 61.7083 30.1298C54.508 41.1335 48.2396 52.6285 44.2159 65.2163C42.9622 69.1552 41.9118 73.1704 41.4035 77.2958C41.3188 77.9989 41.3697 79.2017 40.6581 79.2102C39.7178 79.2187 40.0736 78.0327 39.9974 77.3805C38.9724 68.935 39.8534 60.6928 42.4539 52.5692C44.8512 45.0724 48.3243 38.1348 52.4242 31.4682C52.5936 31.1971 52.7884 30.9345 52.907 30.6465C52.9833 30.4686 53.0171 30.1975 52.924 30.0535C52.7291 29.7486 52.4496 29.9265 52.2294 30.0705C51.9159 30.2653 51.6025 30.4771 51.3314 30.7312C45.3425 36.4406 39.1842 42.0145 34.127 48.5794C28.6802 55.6526 24.1483 63.3273 20.5228 71.5271C16.5753 80.4724 13.8477 89.7649 12.4161 99.4218C11.2217 107.478 11.0692 115.584 11.857 123.691C12.7126 132.535 14.5677 141.166 19.0065 148.934C24.7751 159.032 33.3731 165.596 45.0714 167.003C54.1099 168.095 62.5046 165.944 68.6883 158.693C75.4312 150.781 77.6929 141.565 75.5582 131.323C73.7624 122.708 69.1288 116.118 61.3525 111.984C54.4318 108.299 48.0193 108.503 41.5814 114.331C36.1007 119.295 33.5002 125.631 32.5853 132.806C32.399 134.28 32.1702 135.745 31.95 137.219C31.8992 137.558 32.0686 138.083 31.5519 138.117C31.1283 138.151 30.9843 137.685 30.8657 137.338C30.2474 135.533 29.485 133.754 29.0614 131.908C27.1301 123.454 26.7489 115 30.5777 106.969C34.703 98.3121 41.3781 92.6874 51.2044 91.7641C55.5499 91.3575 59.7346 92.662 63.6481 94.551C69.7133 97.4735 74.8975 101.641 79.0567 106.876C84.08 113.195 86.8161 120.633 87.8664 128.596C89.2896 139.379 88.29 150.002 83.7242 159.904C80.2426 167.469 75.4905 174.372 68.0191 178.65C62.7841 181.649 57.0832 183.529 50.9164 183.495H46.664L46.6724 183.487Z" fill="white"/>
<path d="M109.882 48.427C109.51 49.5367 109.696 50.1889 109.764 50.8497C110.662 60.2947 111.847 69.7144 112.22 79.2103C112.39 83.6151 112.559 88.02 112.457 92.4164C112.135 106.131 111.263 119.794 107.028 132.975C104.308 141.438 100.801 149.561 95.5918 156.846C95.3292 157.21 95.1005 157.913 94.5838 157.659C93.9315 157.337 94.4398 156.719 94.6092 156.27C98.7176 145.622 101.581 134.652 102.995 123.335C103.538 119.024 103.715 114.669 104.071 110.332C104.563 104.343 104.164 98.346 103.995 92.3656C103.817 85.9531 103.165 79.566 102.47 73.179C101.598 65.2163 100.784 57.2537 99.8612 49.2995C98.9378 41.3877 98.1839 33.4674 98.4126 25.4962C98.5058 21.9978 98.7854 18.5077 99.3614 15.0431C99.48 14.2977 99.6748 13.5099 100.429 13.188C101.293 12.8153 101.809 13.5607 102.292 14.0859C105.13 17.1947 107.443 20.6932 109.721 24.2171C115.871 33.713 120.615 43.912 124.105 54.6446C127.231 64.2506 129.094 74.1446 130.399 84.1827C131.5 92.662 131.424 101.141 131.144 109.612C130.865 118.312 129.603 126.927 127.705 135.449C124.639 149.256 119.996 162.462 113.491 175.042C108.747 184.207 102.741 192.424 95.99 200.175C91.4495 205.384 86.4517 210.086 80.2595 213.161C73.4658 216.541 66.4434 219.344 58.574 219.226C52.1022 219.133 46.2912 217.1 40.7935 213.948C33.1528 209.569 27.5027 203.216 22.8352 195.829C19.7942 191.018 17.0496 186.062 14.4067 181.039C13.873 180.031 13.5257 178.972 13.729 177.829C13.9238 176.71 14.4998 176.261 15.6519 176.829C17.9136 177.947 19.5146 179.802 21.0309 181.708C25.9779 187.943 31.9838 192.991 38.7521 197.032C43.5296 199.887 49.0018 201.115 54.5333 201.539C64.3511 202.301 72.9915 198.921 81.2336 193.813C88.8659 189.078 94.804 182.708 100.378 175.846C106.477 168.35 111.263 160.09 114.211 150.933C117.108 141.954 119.556 132.814 120.683 123.386C121.394 117.431 121.792 111.451 121.902 105.462C122.055 96.8213 120.903 88.3165 119.141 79.8795C117.277 70.985 114.431 62.3616 111.619 53.7382C111.085 52.1034 110.56 50.46 109.908 48.4185H109.882V48.427Z" fill="white"/>
<path d="M115.363 10.2401C112.466 9.97754 109.764 9.85894 107.095 9.47775C100.979 8.60525 95.1852 9.7827 89.5012 11.9258C86.926 12.9 84.317 13.8064 81.7334 14.7382C81.4453 14.8398 81.1319 15.1194 80.8693 14.789C80.6237 14.4925 80.8609 14.196 81.0472 13.9419C86.3415 6.92801 92.9065 1.82852 101.784 0.329173C104.681 -0.16214 107.604 0.39694 110.492 0.668009C117.565 1.32027 124.63 1.97253 131.729 1.13391C133.719 0.896724 135.685 0.413882 137.667 0.058104C137.972 0.00727852 138.336 -0.111314 138.497 0.269877C138.649 0.642596 138.344 0.871311 138.09 1.04073C132.601 4.66628 127.112 8.31724 120.53 9.68105C118.777 10.0453 116.955 10.0792 115.363 10.2486V10.2401Z" fill="white"/>
<path d="M73.8641 73.8736C74.474 72.7385 75.0924 71.6034 75.7023 70.4683C76.8628 68.2997 78.3029 66.3345 80.2173 64.7673C83.0974 62.4124 86.85 63.4544 87.8919 67.0206C88.7221 69.8499 88.7729 72.7723 88.0021 75.6694C87.7649 76.5588 87.4006 76.6097 86.8585 75.9489C86.3841 75.3814 85.9944 74.7376 85.4947 74.187C84.0546 72.6029 83.0042 72.5775 81.4879 74.17C79.8869 75.8388 78.8196 77.8549 77.981 79.998C76.7442 83.1662 75.7701 86.419 74.8213 89.6803C74.7027 90.0869 74.6011 90.5104 74.4232 90.8916C74.2114 91.349 74.1945 92.0606 73.5253 92.0521C72.9323 92.0521 72.7036 91.4253 72.4749 90.9679C70.984 87.9522 70.247 84.674 69.3406 81.455C68.7646 79.4051 68.1293 77.3805 67.189 75.4746C66.1979 73.4585 64.9019 73.3314 63.4195 75.0595C63.2162 75.3051 63.0298 75.5677 62.8181 75.8049C62.2336 76.4487 61.7338 76.2962 61.5982 75.5084C60.9799 71.8744 60.514 68.2319 62.3013 64.7589C63.8261 61.8025 66.2572 61.3451 68.807 63.4628C70.5096 64.8859 71.3313 66.8427 72.0683 68.8418C72.6697 70.4598 73.2203 72.0947 73.8556 73.8651H73.8641V73.8736Z" fill="white"/>
<path d="M151.627 8.70688C151.813 10.7738 151.254 12.9677 150.365 15.0939C149.865 16.2883 149.704 17.2964 151.161 18.0164C151.924 18.3976 152.389 19.2193 152.491 20.0918C152.72 22.1078 152.203 24.0985 152.11 26.1061C152.068 27.0549 151.28 27.1057 150.568 26.6821C149.433 26.0045 148.306 25.3014 147.214 24.5559C146.146 23.8274 145.325 23.9714 144.461 24.9541C143.097 26.5042 141.682 28.0205 140.191 29.4521C136.667 32.849 132.652 34.9328 127.561 33.8146C127.155 33.7299 126.621 33.7977 126.468 33.3233C126.291 32.7388 126.833 32.4847 127.214 32.2391C129.205 30.9261 131.187 29.5877 133.228 28.3678C135.93 26.7584 138.268 24.683 140.7 22.7093C141.801 21.8114 141.902 20.9473 140.784 19.9732C136.786 16.5001 136.888 12.4087 138.938 8.15627C139.7 6.58068 140.598 5.08133 141.708 3.71752C143.461 1.55744 145.909 0.701875 148.171 1.50661C150.424 2.30288 151.585 4.158 151.635 7.02117C151.635 7.49554 151.635 7.97838 151.635 8.72382V8.70688H151.627ZM146.731 12.5273C146.731 10.6891 146.053 9.23208 144.334 8.39346C143.774 8.12239 143.156 7.75814 142.58 8.33416C142.038 8.8763 141.987 9.55397 142.233 10.2486C142.69 11.5362 143.639 12.468 144.579 13.3913C145.011 13.8148 145.401 14.5179 146.146 14.2045C146.866 13.8995 146.68 13.1372 146.731 12.5188V12.5273Z" fill="white"/>
<path d="M143.529 47.6815C148.374 47.7154 152.516 51.9085 152.516 56.7962C152.516 61.1756 148.162 65.589 143.867 65.5636C138.632 65.5297 134.609 61.6415 134.617 56.6268C134.617 51.756 138.717 47.6476 143.52 47.6815H143.529Z" fill="white"/>
<path d="M52.6273 140.413C52.6273 145.393 48.6968 149.442 43.8599 149.426C39.0315 149.409 35.0248 145.419 35.0078 140.624C35.0078 135.567 38.9468 131.586 43.97 131.603C48.6375 131.62 52.6188 135.669 52.6273 140.413Z" fill="white"/>
<path d="M148.857 89.2313C144.028 89.2313 140.343 85.4448 140.335 80.4893C140.335 75.5 144.164 71.6203 149.035 71.6626C153.855 71.705 157.954 75.7033 157.98 80.3961C158.005 85.1822 153.821 89.2398 148.848 89.2313H148.857Z" fill="white"/>
<path d="M182.749 192.449C177.709 192.339 173.778 187.714 174.702 182.826C175.752 177.253 178.234 172.187 180.911 167.24C181.987 165.258 182.918 163.132 184.841 161.734C185.256 161.429 185.654 160.895 186.222 161.226C186.798 161.564 186.527 162.166 186.442 162.674C185.934 165.664 184.291 168.189 183.088 170.891C182.308 172.636 181.453 174.339 180.64 176.067C179.928 177.591 180.225 178.887 181.419 180.107C182.851 181.573 184.528 182.428 186.51 182.826C188.551 183.241 188.823 183.716 188.238 185.673C187.764 187.248 187.247 188.807 186.4 190.23C185.561 191.645 184.409 192.559 182.749 192.449Z" fill="white"/>
</svg>
