<svg width="26" height="26" viewBox="0 0 26 26" fill="none" xmlns="http://www.w3.org/2000/svg">
<path d="M0 0H25.175V25.175H0V0Z" fill="white" fill-opacity="0.01"/>
<path fill-rule="evenodd" clip-rule="evenodd" d="M1.60693 12.8553C1.60693 6.64302 6.64302 1.60693 12.8553 1.60693C19.0677 1.60693 24.1038 6.64302 24.1038 12.8553C24.1038 19.0677 19.0677 24.1038 12.8553 24.1038C6.64302 24.1038 1.60693 19.0677 1.60693 12.8553ZM12.8553 2.88793C7.35049 2.88793 2.88793 7.35049 2.88793 12.8553C2.88793 18.3602 7.35049 22.8228 12.8553 22.8228C18.3602 22.8228 22.8228 18.3602 22.8228 12.8553C22.8228 7.35049 18.3602 2.88793 12.8553 2.88793Z" fill="white"/>
<path fill-rule="evenodd" clip-rule="evenodd" d="M1.60693 12.8553C1.60693 12.5595 1.89369 12.3196 2.24743 12.3196H23.4633C23.817 12.3196 24.1038 12.5595 24.1038 12.8553C24.1038 13.1511 23.817 13.3909 23.4633 13.3909H2.24743C1.89369 13.3909 1.60693 13.1511 1.60693 12.8553Z" fill="white"/>
<path fill-rule="evenodd" clip-rule="evenodd" d="M10.7657 2.64096C11.3413 2.02439 12.0472 1.60693 12.8554 1.60693C13.6636 1.60693 14.3695 2.02439 14.9451 2.64096C15.5195 3.25619 16.0075 4.11206 16.4042 5.11654C17.1988 7.12907 17.6762 9.86543 17.6762 12.8553C17.6762 15.8453 17.1988 18.5816 16.4042 20.5942C16.0075 21.5986 15.5195 22.4545 14.9451 23.0697C14.3695 23.6863 13.6636 24.1038 12.8554 24.1038C12.0472 24.1038 11.3413 23.6863 10.7657 23.0697C10.1914 22.4545 9.70329 21.5986 9.30667 20.5942C8.51203 18.5816 8.03467 15.8453 8.03467 12.8553C8.03467 9.86543 8.51203 7.12907 9.30667 5.11654C9.70329 4.11206 10.1914 3.25619 10.7657 2.64096ZM10.4807 5.59229C9.75942 7.41907 9.29916 9.98667 9.29916 12.8553C9.29916 15.724 9.75942 18.2916 10.4807 20.1184C10.8421 21.0336 11.2565 21.7312 11.6844 22.1895C12.111 22.6466 12.507 22.8228 12.8554 22.8228C13.2039 22.8228 13.5998 22.6466 14.0264 22.1895C14.4543 21.7312 14.8688 21.0336 15.2301 20.1184C15.9514 18.2916 16.4117 15.724 16.4117 12.8553C16.4117 9.98667 15.9514 7.41907 15.2301 5.59229C14.8688 4.67712 14.4543 3.9795 14.0264 3.52114C13.5998 3.06414 13.2039 2.88793 12.8554 2.88793C12.507 2.88793 12.111 3.06414 11.6844 3.52114C11.2565 3.9795 10.8421 4.67712 10.4807 5.59229Z" fill="white"/>
<path fill-rule="evenodd" clip-rule="evenodd" d="M5.00594 5.00394C5.25278 4.75967 5.653 4.75967 5.89985 5.00394C7.68062 6.76608 10.1389 7.85489 12.8554 7.85489C15.5719 7.85489 18.0301 6.76608 19.8109 5.00394C20.0578 4.75967 20.458 4.75967 20.7048 5.00394C20.9517 5.2482 20.9517 5.64423 20.7048 5.8885C18.6967 7.87565 15.9206 9.10585 12.8554 9.10585C9.79015 9.10585 7.01409 7.87565 5.00594 5.8885C4.75909 5.64423 4.75909 5.2482 5.00594 5.00394Z" fill="white"/>
<path fill-rule="evenodd" clip-rule="evenodd" d="M5.00594 19.6887C7.01409 17.4531 9.79015 16.0692 12.8554 16.0692C15.9206 16.0692 18.6967 17.4531 20.7048 19.6887C20.9517 19.9635 20.9517 20.409 20.7048 20.6838C20.458 20.9586 20.0578 20.9586 19.8109 20.6838C18.0301 18.7014 15.5719 17.4765 12.8554 17.4765C10.1389 17.4765 7.68062 18.7014 5.89985 20.6838C5.653 20.9586 5.25278 20.9586 5.00594 20.6838C4.75909 20.409 4.75909 19.9635 5.00594 19.6887Z" fill="white"/>
</svg>
