<svg width="19" height="20" viewBox="0 0 19 20" fill="none" xmlns="http://www.w3.org/2000/svg">
<path fill-rule="evenodd" clip-rule="evenodd" d="M0.276956 0.456949C0.646231 0.087674 1.24494 0.087674 1.61422 0.456949L18.723 17.5658C19.0923 17.935 19.0923 18.5338 18.723 18.903C18.3538 19.2723 17.7551 19.2723 17.3858 18.903L0.276956 1.79421C-0.0923187 1.42494 -0.0923187 0.826224 0.276956 0.456949Z" fill="white"/>
<path fill-rule="evenodd" clip-rule="evenodd" d="M18.723 0.456949C19.0923 0.826224 19.0923 1.42494 18.723 1.79421L1.61422 18.903C1.24494 19.2723 0.646231 19.2723 0.276956 18.903C-0.0923187 18.5338 -0.0923187 17.935 0.276956 17.5658L17.3858 0.456949C17.7551 0.087674 18.3538 0.087674 18.723 0.456949Z" fill="white"/>
</svg>
