<svg width="15" height="24" viewBox="0 0 15 24" fill="none" xmlns="http://www.w3.org/2000/svg">
<path d="M11.8321 24H3.16833C2.72874 24 2.37256 23.6752 2.37256 23.2743C2.37256 22.8735 2.72874 22.5487 3.16833 22.5487H11.8321C12.2717 22.5487 12.6279 22.8735 12.6279 23.2743C12.6279 23.6752 12.2717 24 11.8321 24Z" fill="#569996"/>
<path d="M7.543 14.7332H7.45646C5.08799 14.7332 3.16797 12.9824 3.16797 10.8225V3.9107C3.16797 1.75088 5.08799 0 7.45646 0H7.543C9.91147 0 11.8315 1.75088 11.8315 3.9107V10.8223C11.8315 12.9821 9.91147 14.7332 7.543 14.7332Z" fill="#569996"/>
<path d="M7.54327 17.6224H7.45673C5.46501 17.6224 3.5924 16.9149 2.18395 15.6308C0.775493 14.3464 0 12.6388 0 10.8225C0 10.4217 0.356184 10.0969 0.795773 10.0969C1.23536 10.0969 1.59155 10.4217 1.59155 10.8225C1.59155 12.2512 2.20166 13.5945 3.30934 14.6046C4.41731 15.6147 5.89003 16.171 7.45673 16.171H7.54327C9.10997 16.171 10.583 15.6147 11.6907 14.6046C12.7983 13.5945 13.4085 12.2512 13.4085 10.8225C13.4085 10.4217 13.7646 10.0969 14.2042 10.0969C14.6438 10.0969 15 10.4217 15 10.8225C15 12.6388 14.2242 14.3464 12.8161 15.6308C11.4076 16.9152 9.53499 17.6224 7.54327 17.6224Z" fill="#569996"/>
<path d="M7.5 24C7.2238 24 7 23.6926 7 23.3132V17.6868C7 17.3074 7.2238 17 7.5 17C7.7762 17 8 17.3074 8 17.6868V23.3132C8 23.6926 7.7762 24 7.5 24Z" fill="#569996"/>
</svg>
