<svg width="26" height="26" viewBox="0 0 26 26" fill="none" xmlns="http://www.w3.org/2000/svg">
<path d="M0.188477 0H24.3546V24.1661H0.188477V0Z" fill="white" fill-opacity="0.01"/>
<path fill-rule="evenodd" clip-rule="evenodd" d="M1.19531 10.5727C1.19531 5.28966 5.47807 1.0069 10.7611 1.0069C16.0441 1.0069 20.3268 5.28966 20.3268 10.5727C20.3268 15.8557 16.0441 20.1384 10.7611 20.1384C5.47807 20.1384 1.19531 15.8557 1.19531 10.5727ZM10.7611 3.02347C6.59179 3.02347 3.21188 6.40338 3.21188 10.5727C3.21188 14.7419 6.59179 18.1218 10.7611 18.1218C14.9304 18.1218 18.3103 14.7419 18.3103 10.5727C18.3103 6.40338 14.9304 3.02347 10.7611 3.02347Z" fill="white"/>
<path d="M17.0542 16.866L24.3544 24.1662L17.0542 16.866Z" fill="white"/>
<path fill-rule="evenodd" clip-rule="evenodd" d="M16.3377 16.1494C16.7249 15.7623 17.3525 15.7623 17.7397 16.1494L25.071 23.4808C25.4582 23.8679 25.4582 24.4956 25.071 24.8827C24.6839 25.2699 24.0562 25.2699 23.6691 24.8827L16.3377 17.5514C15.9506 17.1642 15.9506 16.5366 16.3377 16.1494Z" fill="white"/>
</svg>
