<svg width="27" height="26" viewBox="0 0 27 26" fill="none" xmlns="http://www.w3.org/2000/svg">
<path fill-rule="evenodd" clip-rule="evenodd" d="M9.77766 0.0352037C10.2256 -0.0875003 10.6989 0.118596 10.9101 0.528297C11.3555 1.39233 12.2614 1.98058 13.3044 1.98058C14.3475 1.98058 15.2534 1.39233 15.6988 0.528297C15.91 0.118596 16.3833 -0.0875003 16.8312 0.0352037C18.8983 0.601498 20.7604 1.65254 22.2851 3.0556C22.6016 3.34685 22.6875 3.80912 22.4964 4.19274C22.3206 4.54548 22.2214 4.94298 22.2214 5.36616C22.2214 6.83411 23.4239 8.02414 24.9072 8.02414C24.9197 8.02414 24.9322 8.02405 24.9446 8.02387C25.3771 8.01776 25.7623 8.29343 25.8919 8.70181C26.2847 9.93942 26.4961 11.2554 26.4961 12.6184C26.4961 13.518 26.404 14.3974 26.2283 15.2474C26.1279 15.7332 25.6729 16.0654 25.1742 16.0169C25.0867 16.0084 24.9977 16.004 24.9072 16.004C23.4239 16.004 22.2214 17.194 22.2214 18.662C22.2214 19.3155 22.4584 19.9116 22.8532 20.3747C23.1763 20.7537 23.1578 21.313 22.8103 21.6703C21.2535 23.2713 19.2862 24.4808 17.0743 25.1326C16.5638 25.283 16.0255 25.0016 15.8633 24.4994C15.5168 23.4267 14.5008 22.6519 13.3044 22.6519C12.1081 22.6519 11.092 23.4267 10.7456 24.4994C10.5834 25.0016 10.0451 25.283 9.53459 25.1326C7.32267 24.4808 5.3554 23.2713 3.79852 21.6703C3.45107 21.313 3.43259 20.7536 3.75572 20.3746C4.15046 19.9116 4.38748 19.3155 4.38748 18.662C4.38748 17.194 3.18503 16.004 1.70173 16.004C1.61122 16.004 1.52214 16.0084 1.43465 16.0169C0.936019 16.0654 0.48097 15.7332 0.380563 15.2474C0.204882 14.3974 0.112793 13.518 0.112793 12.6184C0.112793 11.2554 0.324185 9.93942 0.716997 8.7018C0.84661 8.29343 1.2318 8.01776 1.66427 8.02387C1.67673 8.02405 1.68922 8.02414 1.70173 8.02414C3.18503 8.02414 4.38748 6.83411 4.38748 5.36616C4.38748 4.94298 4.28826 4.54548 4.11252 4.19274C3.9214 3.80912 4.00729 3.34685 4.32379 3.0556C5.84847 1.65254 7.71055 0.601498 9.77766 0.0352037ZM6.14912 4.04562C6.27597 4.4645 6.34401 4.90801 6.34401 5.36616C6.34401 7.66682 4.63527 9.57251 2.40525 9.90803C2.18596 10.7747 2.06933 11.6825 2.06933 12.6184C2.06933 13.1179 2.10254 13.6092 2.16681 14.0905C4.5123 14.3214 6.34401 16.28 6.34401 18.662C6.34401 19.4615 6.13702 20.2145 5.77357 20.8699C6.79328 21.782 7.98223 22.5112 9.28752 23.0059C10.0908 21.637 11.588 20.7156 13.3044 20.7156C15.0209 20.7156 16.5181 21.637 17.3214 23.0059C18.6267 22.5112 19.8156 21.782 20.8353 20.8699C20.4719 20.2145 20.2649 19.4615 20.2649 18.662C20.2649 16.28 22.0966 14.3214 24.4421 14.0905C24.5063 13.6092 24.5396 13.1179 24.5396 12.6184C24.5396 11.6825 24.4229 10.7748 24.2036 9.90803C21.9736 9.57251 20.2649 7.66681 20.2649 5.36616C20.2649 4.90801 20.3329 4.4645 20.4598 4.04562C19.4394 3.21044 18.2681 2.55071 16.993 2.1123C16.1455 3.20822 14.8092 3.91689 13.3044 3.91689C11.7997 3.91689 10.4634 3.20822 9.61586 2.1123C8.34076 2.55071 7.16947 3.21044 6.14912 4.04562Z" fill="white"/>
<path fill-rule="evenodd" clip-rule="evenodd" d="M8.10059 12.7076C8.10059 9.83347 10.4305 7.50354 13.3046 7.50354C16.1787 7.50354 18.5087 9.83347 18.5087 12.7076C18.5087 15.5817 16.1787 17.9116 13.3046 17.9116C10.4305 17.9116 8.10059 15.5817 8.10059 12.7076ZM13.3046 9.44186C11.501 9.44186 10.0389 10.904 10.0389 12.7076C10.0389 14.5112 11.501 15.9733 13.3046 15.9733C15.1082 15.9733 16.5704 14.5112 16.5704 12.7076C16.5704 10.904 15.1082 9.44186 13.3046 9.44186Z" fill="white"/>
</svg>
