<svg width="26" height="26" viewBox="0 0 26 26" fill="none" xmlns="http://www.w3.org/2000/svg">
<path d="M0 0H25.1731V25.1731H0V0Z" fill="white" fill-opacity="0.01"/>
<path fill-rule="evenodd" clip-rule="evenodd" d="M12.5862 3.14664C10.8483 3.14664 9.43955 4.55544 9.43955 6.29327C9.43955 8.03111 10.8483 9.43991 12.5862 9.43991C14.324 9.43991 15.7328 8.03111 15.7328 6.29327C15.7328 4.55544 14.324 3.14664 12.5862 3.14664ZM7.3418 6.29327C7.3418 3.39688 9.68979 1.04889 12.5862 1.04889C15.4826 1.04889 17.8306 3.39688 17.8306 6.29327C17.8306 9.18967 15.4826 11.5377 12.5862 11.5377C9.68979 11.5377 7.3418 9.18967 7.3418 6.29327Z" fill="white"/>
<path fill-rule="evenodd" clip-rule="evenodd" d="M2.09766 23.0753C2.09766 17.2825 6.79365 12.5865 12.5864 12.5865C18.3792 12.5865 23.0752 17.2825 23.0752 23.0753C23.0752 23.6545 22.6056 24.1241 22.0263 24.1241C21.447 24.1241 20.9774 23.6545 20.9774 23.0753C20.9774 18.441 17.2206 14.6842 12.5864 14.6842C7.95221 14.6842 4.19541 18.441 4.19541 23.0753C4.19541 23.6545 3.72581 24.1241 3.14653 24.1241C2.56725 24.1241 2.09766 23.6545 2.09766 23.0753Z" fill="white"/>
</svg>
